<?xml version="1.0" encoding="UTF-8"?>
<svg id="uuid-ed37a594-64a3-4472-9b62-fb1647271ee9" data-name="Layer 1" xmlns="http://www.w3.org/2000/svg" viewBox="0 0 380 400">
  <defs>
    <style>
      .uuid-ef02c112-1e3f-4296-a02d-2dea7b5a6bc7 {
        fill: #17244e;
      }

      .uuid-ef02c112-1e3f-4296-a02d-2dea7b5a6bc7, .uuid-54980733-c8d9-40bf-b8d9-73bd3d19be9f, .uuid-c59efe03-2e1e-4e15-b5c7-bc5efa04ee43 {
        stroke-width: 0px;
      }

      .uuid-54980733-c8d9-40bf-b8d9-73bd3d19be9f {
        fill: #fff;
      }

      .uuid-c59efe03-2e1e-4e15-b5c7-bc5efa04ee43 {
        fill: #404041;
      }
    </style>
  </defs>
  <rect class="uuid-54980733-c8d9-40bf-b8d9-73bd3d19be9f" width="380" height="400"/>
  <g>
    <path class="uuid-c59efe03-2e1e-4e15-b5c7-bc5efa04ee43" d="m276.5,174.7c1.91-2.63,3.8-5.31,5.69-8.05-1.86,2.5-3.83,5-5.91,7.48-12.95,15.49-29.89,30.53-48.44,45.24-.9.72-1.82,1.44-2.73,2.16-10.57,8.3-21.3,15.71-31.94,22.19-31.41,19.12-62.1,30.08-85.96,31.3-17.27.89-30.95-3.32-38.73-13.24-.33-.42-.65-.85-.95-1.3-15.55-22.23,1.2-64.57,38.74-105.59-53.77,49.06-80.18,104.98-59.57,131.25,1.61,2.06,3.47,3.89,5.56,5.48,4.95,3.78,11.18,6.25,18.43,7.47,3.61.62,7.49.91,11.6.91s8.52-.3,13.1-.91c29.12-3.86,66.13-19.92,102.33-45.99l22.4,45.99h46.53l-35.57-73.05c17.77-16.23,31.81-32.55,45.41-51.33Z"/>
    <path class="uuid-ef02c112-1e3f-4296-a02d-2dea7b5a6bc7" d="m273.53,164.72c-1.68,1.58-3.35,3.14-5.01,4.67-16.54,15.3-31.99,27.92-46.37,38.3l-31.3-64.28h-65.97l-49.24,100.51h-.01c-3.18-1.77-4.75-3.12-4.75-3.12,1.1,2.01,2.28,3.88,3.53,5.62,9.33,13.08,22.42,18.61,37.59,18.79,23.08.29,50.98-11.79,77.75-28.5,11.94-7.44,23.67-15.81,34.64-24.4,18.54-14.52,34.95-29.69,46.7-42.18,1.24-1.32,2.43-2.61,3.56-3.87,4.33-4.8.22-2.81-1.13-1.54Zm-155.07,87.33l39.53-80.58,28.59,58.73c-27.87,15.01-50.51,20.73-68.12,21.85Z"/>
    <path class="uuid-c59efe03-2e1e-4e15-b5c7-bc5efa04ee43" d="m241.89,121.39l3.94-4.33,28.04.99,6.45-7.08,2.51,2.28-4.51,4.96,16.34.58,6.52-7.16,2.51,2.28-4.59,5.04,15.34.54c11.77-12.56,22.06-21.71,25.02-19.02l.05-.05s.05.09.08.12c.04.03.09.04.13.07l-.05.05c3.08,2.6-5.07,13.76-16.56,26.72l1.98,15.21,4.59-5.04,2.51,2.28-6.52,7.16,2.11,16.21,4.51-4.96,2.51,2.28-6.45,7.08,3.62,27.82-3.94,4.33-21.33-54.81c-7.81,8.01-15.58,15.6-21.56,21.26l2.61,20.04-4.71,5.18-7.84-20.14-20.79-5.91,4.71-5.18,19.77.7c5.17-6.35,12.13-14.83,19.53-23.44l-56.5-16.06Z"/>
  </g>
</svg>